<?xml version="1.0" encoding="UTF-8"?> <svg xmlns="http://www.w3.org/2000/svg" width="700" height="700" viewBox="0 0 700 700" fill="none"> <rect width="700" height="700" fill="white"></rect> <path fill-rule="evenodd" clip-rule="evenodd" d="M280.375 446.339C287.743 448.795 291.725 456.759 289.269 464.127L269.552 523.278C267.096 530.646 259.132 534.628 251.764 532.172C244.396 529.716 240.414 521.752 242.87 514.384L262.587 455.233C265.043 447.865 273.007 443.883 280.375 446.339Z" fill="#1AB5F8"></path> <path fill-rule="evenodd" clip-rule="evenodd" d="M280.375 446.339C287.743 448.795 291.725 456.759 289.269 464.127L269.552 523.278C267.096 530.646 259.132 534.628 251.764 532.172C244.396 529.716 240.414 521.752 242.87 514.384L262.587 455.233C265.043 447.865 273.007 443.883 280.375 446.339Z" fill="url(#paint0_linear_163_817)"></path> <path fill-rule="evenodd" clip-rule="evenodd" d="M419.625 446.339C426.993 443.883 434.957 447.865 437.413 455.233L457.13 514.384C459.586 521.752 455.604 529.716 448.236 532.172C440.868 534.628 432.904 530.646 430.448 523.278L410.731 464.127C408.275 456.759 412.257 448.795 419.625 446.339Z" fill="#1AB5F8"></path> <path fill-rule="evenodd" clip-rule="evenodd" d="M419.625 446.339C426.993 443.883 434.957 447.865 437.413 455.233L457.13 514.384C459.586 521.752 455.604 529.716 448.236 532.172C440.868 534.628 432.904 530.646 430.448 523.278L410.731 464.127C408.275 456.759 412.257 448.795 419.625 446.339Z" fill="url(#paint1_linear_163_817)"></path> <path fill-rule="evenodd" clip-rule="evenodd" d="M317.179 368.754C317.179 360.987 323.475 354.691 331.242 354.691H368.758C376.524 354.691 382.82 360.987 382.82 368.754C382.82 376.52 376.524 382.816 368.758 382.816H331.242C323.475 382.816 317.179 376.52 317.179 368.754Z" fill="#1AB5F8"></path> <path fill-rule="evenodd" clip-rule="evenodd" d="M317.179 368.754C317.179 360.987 323.475 354.691 331.242 354.691H368.758C376.524 354.691 382.82 360.987 382.82 368.754C382.82 376.52 376.524 382.816 368.758 382.816H331.242C323.475 382.816 317.179 376.52 317.179 368.754Z" fill="url(#paint2_linear_163_817)"></path> <path fill-rule="evenodd" clip-rule="evenodd" d="M331.187 214.008C313.961 213.94 297.19 219.53 283.451 229.92C277.256 234.605 268.437 233.38 263.753 227.186C259.068 220.991 260.292 212.172 266.487 207.487C285.133 193.386 307.893 185.797 331.269 185.883H368.731C392.108 185.797 414.867 193.386 433.514 207.487C439.708 212.172 440.932 220.991 436.248 227.186C431.563 233.38 422.744 234.605 416.549 229.92C402.81 219.53 386.039 213.94 368.814 214.008L368.758 214.008H331.242L331.187 214.008Z" fill="#1AB5F8"></path> <path fill-rule="evenodd" clip-rule="evenodd" d="M331.187 214.008C313.961 213.94 297.19 219.53 283.451 229.92C277.256 234.605 268.437 233.38 263.753 227.186C259.068 220.991 260.292 212.172 266.487 207.487C285.133 193.386 307.893 185.797 331.269 185.883H368.731C392.108 185.797 414.867 193.386 433.514 207.487C439.708 212.172 440.932 220.991 436.248 227.186C431.563 233.38 422.744 234.605 416.549 229.92C402.81 219.53 386.039 213.94 368.814 214.008L368.758 214.008H331.242L331.187 214.008Z" fill="url(#paint3_linear_163_817)"></path> <path fill-rule="evenodd" clip-rule="evenodd" d="M457.788 261.2C465.389 259.607 472.842 264.478 474.435 272.08C475.929 279.212 476.658 286.484 476.609 293.77V406.268C476.609 445.114 445.119 476.604 406.273 476.604H387.516C372.734 476.604 359.404 470.386 350 460.422C340.596 470.386 327.266 476.604 312.484 476.604H293.726C254.881 476.604 223.391 445.114 223.391 406.268V293.77C223.342 286.483 224.071 279.212 225.565 272.08C227.158 264.478 234.611 259.607 242.212 261.2C249.814 262.792 254.685 270.245 253.093 277.847C252.006 283.033 251.477 288.321 251.515 293.62C251.515 293.654 251.516 293.688 251.516 293.721V406.268C251.516 429.581 270.414 448.479 293.726 448.479H312.484C325.437 448.479 335.937 437.979 335.937 425.026C335.937 417.259 342.233 410.963 350 410.963C357.766 410.963 364.062 417.259 364.062 425.026C364.062 437.979 374.563 448.479 387.516 448.479H406.273C429.586 448.479 448.484 429.581 448.484 406.268V293.721C448.484 293.703 448.484 293.684 448.484 293.666L448.485 293.62C448.523 288.321 447.994 283.033 446.907 277.847C445.315 270.245 450.186 262.792 457.788 261.2Z" fill="#1AB5F8"></path> <path fill-rule="evenodd" clip-rule="evenodd" d="M457.788 261.2C465.389 259.607 472.842 264.478 474.435 272.08C475.929 279.212 476.658 286.484 476.609 293.77V406.268C476.609 445.114 445.119 476.604 406.273 476.604H387.516C372.734 476.604 359.404 470.386 350 460.422C340.596 470.386 327.266 476.604 312.484 476.604H293.726C254.881 476.604 223.391 445.114 223.391 406.268V293.77C223.342 286.483 224.071 279.212 225.565 272.08C227.158 264.478 234.611 259.607 242.212 261.2C249.814 262.792 254.685 270.245 253.093 277.847C252.006 283.033 251.477 288.321 251.515 293.62C251.515 293.654 251.516 293.688 251.516 293.721V406.268C251.516 429.581 270.414 448.479 293.726 448.479H312.484C325.437 448.479 335.937 437.979 335.937 425.026C335.937 417.259 342.233 410.963 350 410.963C357.766 410.963 364.062 417.259 364.062 425.026C364.062 437.979 374.563 448.479 387.516 448.479H406.273C429.586 448.479 448.484 429.581 448.484 406.268V293.721C448.484 293.703 448.484 293.684 448.484 293.666L448.485 293.62C448.523 288.321 447.994 283.033 446.907 277.847C445.315 270.245 450.186 262.792 457.788 261.2Z" fill="url(#paint4_linear_163_817)"></path> <path fill-rule="evenodd" clip-rule="evenodd" d="M218.695 195.239C216.102 195.239 214 197.341 214 199.935V237.45C214 250.403 224.5 260.903 237.453 260.903C250.405 260.903 260.906 250.403 260.906 237.45V199.935C260.906 197.341 258.804 195.239 256.21 195.239H218.695ZM237.453 289.028C265.938 289.028 289.031 265.936 289.031 237.45V199.935C289.031 181.808 274.337 167.114 256.21 167.114H218.695C200.569 167.114 185.875 181.808 185.875 199.935V237.45C185.875 265.936 208.967 289.028 237.453 289.028Z" fill="#1AB5F8"></path> <path fill-rule="evenodd" clip-rule="evenodd" d="M218.695 195.239C216.102 195.239 214 197.341 214 199.935V237.45C214 250.403 224.5 260.903 237.453 260.903C250.405 260.903 260.906 250.403 260.906 237.45V199.935C260.906 197.341 258.804 195.239 256.21 195.239H218.695ZM237.453 289.028C265.938 289.028 289.031 265.936 289.031 237.45V199.935C289.031 181.808 274.337 167.114 256.21 167.114H218.695C200.569 167.114 185.875 181.808 185.875 199.935V237.45C185.875 265.936 208.967 289.028 237.453 289.028Z" fill="url(#paint5_linear_163_817)"></path> <path fill-rule="evenodd" clip-rule="evenodd" d="M443.789 195.239C441.196 195.239 439.093 197.341 439.093 199.935V237.45C439.093 250.403 449.594 260.903 462.546 260.903C475.499 260.903 486 250.403 486 237.45V199.935C486 197.341 483.897 195.239 481.304 195.239H443.789ZM462.546 289.028C491.032 289.028 514.125 265.936 514.125 237.45V199.935C514.125 181.808 499.43 167.114 481.304 167.114H443.789C425.663 167.114 410.968 181.808 410.968 199.935V237.45C410.968 265.936 434.061 289.028 462.546 289.028Z" fill="#1AB5F8"></path> <path fill-rule="evenodd" clip-rule="evenodd" d="M443.789 195.239C441.196 195.239 439.093 197.341 439.093 199.935V237.45C439.093 250.403 449.594 260.903 462.546 260.903C475.499 260.903 486 250.403 486 237.45V199.935C486 197.341 483.897 195.239 481.304 195.239H443.789ZM462.546 289.028C491.032 289.028 514.125 265.936 514.125 237.45V199.935C514.125 181.808 499.43 167.114 481.304 167.114H443.789C425.663 167.114 410.968 181.808 410.968 199.935V237.45C410.968 265.936 434.061 289.028 462.546 289.028Z" fill="url(#paint6_linear_163_817)"></path> <path fill-rule="evenodd" clip-rule="evenodd" d="M312.484 448.492C320.25 448.492 326.546 454.788 326.546 462.555V481.313C326.546 489.086 332.848 495.387 340.621 495.387H359.378C367.151 495.387 373.453 489.086 373.453 481.313V462.555C373.453 454.788 379.749 448.492 387.515 448.492C395.282 448.492 401.578 454.788 401.578 462.555V481.313C401.578 504.619 382.684 523.512 359.378 523.512H340.621C317.315 523.512 298.421 504.619 298.421 481.313V462.555C298.421 454.788 304.717 448.492 312.484 448.492Z" fill="#1AB5F8"></path> <path fill-rule="evenodd" clip-rule="evenodd" d="M312.484 448.492C320.25 448.492 326.546 454.788 326.546 462.555V481.313C326.546 489.086 332.848 495.387 340.621 495.387H359.378C367.151 495.387 373.453 489.086 373.453 481.313V462.555C373.453 454.788 379.749 448.492 387.515 448.492C395.282 448.492 401.578 454.788 401.578 462.555V481.313C401.578 504.619 382.684 523.512 359.378 523.512H340.621C317.315 523.512 298.421 504.619 298.421 481.313V462.555C298.421 454.788 304.717 448.492 312.484 448.492Z" fill="url(#paint7_linear_163_817)"></path> <path fill-rule="evenodd" clip-rule="evenodd" d="M349.999 354.706C357.766 354.706 364.062 361.002 364.062 368.768V425.042C364.062 432.808 357.766 439.104 349.999 439.104C342.233 439.104 335.937 432.808 335.937 425.042V368.768C335.937 361.002 342.233 354.706 349.999 354.706Z" fill="#1AB5F8"></path> <path fill-rule="evenodd" clip-rule="evenodd" d="M349.999 354.706C357.766 354.706 364.062 361.002 364.062 368.768V425.042C364.062 432.808 357.766 439.104 349.999 439.104C342.233 439.104 335.937 432.808 335.937 425.042V368.768C335.937 361.002 342.233 354.706 349.999 354.706Z" fill="url(#paint8_linear_163_817)"></path> <path fill-rule="evenodd" clip-rule="evenodd" d="M387.497 284.359C392.479 284.352 397.258 286.328 400.781 289.851C404.303 293.374 406.279 298.153 406.273 303.135C406.26 313.485 397.863 321.867 387.513 321.863C377.163 321.858 368.773 313.469 368.769 303.119C368.765 292.768 377.147 284.372 387.497 284.359Z" fill="#1AB5F8"></path> <path fill-rule="evenodd" clip-rule="evenodd" d="M387.497 284.359C392.479 284.352 397.258 286.328 400.781 289.851C404.303 293.374 406.279 298.153 406.273 303.135C406.26 313.485 397.863 321.867 387.513 321.863C377.163 321.858 368.773 313.469 368.769 303.119C368.765 292.768 377.147 284.372 387.497 284.359Z" fill="url(#paint9_linear_163_817)"></path> <path fill-rule="evenodd" clip-rule="evenodd" d="M312.466 284.359C317.448 284.352 322.227 286.328 325.75 289.851C329.272 293.374 331.248 298.153 331.242 303.135C331.229 313.485 322.832 321.867 312.482 321.863C302.132 321.858 293.743 313.469 293.738 303.119C293.734 292.768 302.116 284.372 312.466 284.359Z" fill="#1AB5F8"></path> <path fill-rule="evenodd" clip-rule="evenodd" d="M312.466 284.359C317.448 284.352 322.227 286.328 325.75 289.851C329.272 293.374 331.248 298.153 331.242 303.135C331.229 313.485 322.832 321.867 312.482 321.863C302.132 321.858 293.743 313.469 293.738 303.119C293.734 292.768 302.116 284.372 312.466 284.359Z" fill="url(#paint10_linear_163_817)"></path> <defs> <linearGradient id="paint0_linear_163_817" x1="350" y1="167.114" x2="350" y2="532.897" gradientUnits="userSpaceOnUse"> <stop stop-color="#3AD4DB"></stop> <stop offset="1" stop-color="#1AB5F8"></stop> <stop offset="1" stop-color="#1AB5F8"></stop> </linearGradient> <linearGradient id="paint1_linear_163_817" x1="350" y1="167.114" x2="350" y2="532.897" gradientUnits="userSpaceOnUse"> <stop stop-color="#3AD4DB"></stop> <stop offset="1" stop-color="#1AB5F8"></stop> <stop offset="1" stop-color="#1AB5F8"></stop> </linearGradient> <linearGradient id="paint2_linear_163_817" x1="350" y1="167.114" x2="350" y2="532.897" gradientUnits="userSpaceOnUse"> <stop stop-color="#3AD4DB"></stop> <stop offset="1" stop-color="#1AB5F8"></stop> <stop offset="1" stop-color="#1AB5F8"></stop> </linearGradient> <linearGradient id="paint3_linear_163_817" x1="350" y1="167.114" x2="350" y2="532.897" gradientUnits="userSpaceOnUse"> <stop stop-color="#3AD4DB"></stop> <stop offset="1" stop-color="#1AB5F8"></stop> <stop offset="1" stop-color="#1AB5F8"></stop> </linearGradient> <linearGradient id="paint4_linear_163_817" x1="350" y1="167.114" x2="350" y2="532.897" gradientUnits="userSpaceOnUse"> <stop stop-color="#3AD4DB"></stop> <stop offset="1" stop-color="#1AB5F8"></stop> <stop offset="1" stop-color="#1AB5F8"></stop> </linearGradient> <linearGradient id="paint5_linear_163_817" x1="350" y1="167.114" x2="350" y2="532.897" gradientUnits="userSpaceOnUse"> <stop stop-color="#3AD4DB"></stop> <stop offset="1" stop-color="#1AB5F8"></stop> <stop offset="1" stop-color="#1AB5F8"></stop> </linearGradient> <linearGradient id="paint6_linear_163_817" x1="350" y1="167.114" x2="350" y2="532.897" gradientUnits="userSpaceOnUse"> <stop stop-color="#3AD4DB"></stop> <stop offset="1" stop-color="#1AB5F8"></stop> <stop offset="1" stop-color="#1AB5F8"></stop> </linearGradient> <linearGradient id="paint7_linear_163_817" x1="350" y1="167.114" x2="350" y2="532.897" gradientUnits="userSpaceOnUse"> <stop stop-color="#3AD4DB"></stop> <stop offset="1" stop-color="#1AB5F8"></stop> <stop offset="1" stop-color="#1AB5F8"></stop> </linearGradient> <linearGradient id="paint8_linear_163_817" x1="350" y1="167.114" x2="350" y2="532.897" gradientUnits="userSpaceOnUse"> <stop stop-color="#3AD4DB"></stop> <stop offset="1" stop-color="#1AB5F8"></stop> <stop offset="1" stop-color="#1AB5F8"></stop> </linearGradient> <linearGradient id="paint9_linear_163_817" x1="350" y1="167.114" x2="350" y2="532.897" gradientUnits="userSpaceOnUse"> <stop stop-color="#3AD4DB"></stop> <stop offset="1" stop-color="#1AB5F8"></stop> <stop offset="1" stop-color="#1AB5F8"></stop> </linearGradient> <linearGradient id="paint10_linear_163_817" x1="350" y1="167.114" x2="350" y2="532.897" gradientUnits="userSpaceOnUse"> <stop stop-color="#3AD4DB"></stop> <stop offset="1" stop-color="#1AB5F8"></stop> <stop offset="1" stop-color="#1AB5F8"></stop> </linearGradient> </defs> </svg> 