<?xml version="1.0" encoding="UTF-8"?> <svg xmlns="http://www.w3.org/2000/svg" width="700" height="700" viewBox="0 0 700 700" fill="none"> <rect width="700" height="700" fill="white"></rect> <path fill-rule="evenodd" clip-rule="evenodd" d="M443.789 457.868C451.555 457.868 457.851 464.164 457.851 471.93V500.067C457.851 502.655 459.959 504.762 462.547 504.762H500.062C502.65 504.762 504.758 502.655 504.758 500.067V471.93C504.758 464.164 511.054 457.868 518.82 457.868C526.587 457.868 532.883 464.164 532.883 471.93V500.067C532.883 518.188 518.183 532.887 500.062 532.887H462.547C444.426 532.887 429.726 518.188 429.726 500.067V471.93C429.726 464.164 436.022 457.868 443.789 457.868Z" fill="#1AB5F8"></path> <path fill-rule="evenodd" clip-rule="evenodd" d="M443.789 457.868C451.555 457.868 457.851 464.164 457.851 471.93V500.067C457.851 502.655 459.959 504.762 462.547 504.762H500.062C502.65 504.762 504.758 502.655 504.758 500.067V471.93C504.758 464.164 511.054 457.868 518.82 457.868C526.587 457.868 532.883 464.164 532.883 471.93V500.067C532.883 518.188 518.183 532.887 500.062 532.887H462.547C444.426 532.887 429.726 518.188 429.726 500.067V471.93C429.726 464.164 436.022 457.868 443.789 457.868Z" fill="url(#paint0_linear_163_827)"></path> <path fill-rule="evenodd" clip-rule="evenodd" d="M181.179 457.868C188.946 457.868 195.242 464.164 195.242 471.93V500.067C195.242 502.655 197.349 504.762 199.937 504.762H237.453C240.04 504.762 242.148 502.655 242.148 500.067V471.93C242.148 464.164 248.444 457.868 256.21 457.868C263.977 457.868 270.273 464.164 270.273 471.93V500.067C270.273 518.188 255.573 532.887 237.453 532.887H199.937C181.816 532.887 167.117 518.188 167.117 500.067V471.93C167.117 464.164 173.413 457.868 181.179 457.868Z" fill="#1AB5F8"></path> <path fill-rule="evenodd" clip-rule="evenodd" d="M181.179 457.868C188.946 457.868 195.242 464.164 195.242 471.93V500.067C195.242 502.655 197.349 504.762 199.937 504.762H237.453C240.04 504.762 242.148 502.655 242.148 500.067V471.93C242.148 464.164 248.444 457.868 256.21 457.868C263.977 457.868 270.273 464.164 270.273 471.93V500.067C270.273 518.188 255.573 532.887 237.453 532.887H199.937C181.816 532.887 167.117 518.188 167.117 500.067V471.93C167.117 464.164 173.413 457.868 181.179 457.868Z" fill="url(#paint1_linear_163_827)"></path> <path fill-rule="evenodd" clip-rule="evenodd" d="M208.747 311.918C211.384 309.278 214.963 307.794 218.695 307.794H481.304C485.034 307.794 488.611 309.276 491.248 311.913L512.275 332.941C525.473 346.139 532.882 364.028 532.882 382.689V471.919C532.882 479.686 526.586 485.982 518.82 485.982H181.179C173.413 485.982 167.117 479.686 167.117 471.919V382.689C167.117 364.033 174.522 346.141 187.726 332.957C187.728 332.955 187.73 332.953 187.732 332.951L208.747 311.918ZM224.523 335.919L207.602 352.856C199.689 360.755 195.242 371.485 195.242 382.689V457.857H504.757V382.689C504.757 371.487 500.311 360.752 492.388 352.828L475.479 335.919H224.523Z" fill="#1AB5F8"></path> <path fill-rule="evenodd" clip-rule="evenodd" d="M208.747 311.918C211.384 309.278 214.963 307.794 218.695 307.794H481.304C485.034 307.794 488.611 309.276 491.248 311.913L512.275 332.941C525.473 346.139 532.882 364.028 532.882 382.689V471.919C532.882 479.686 526.586 485.982 518.82 485.982H181.179C173.413 485.982 167.117 479.686 167.117 471.919V382.689C167.117 364.033 174.522 346.141 187.726 332.957C187.728 332.955 187.73 332.953 187.732 332.951L208.747 311.918ZM224.523 335.919L207.602 352.856C199.689 360.755 195.242 371.485 195.242 382.689V457.857H504.757V382.689C504.757 371.487 500.311 360.752 492.388 352.828L475.479 335.919H224.523Z" fill="url(#paint2_linear_163_827)"></path> <path fill-rule="evenodd" clip-rule="evenodd" d="M532.833 395.729C533.478 403.468 527.727 410.265 519.987 410.91L463.714 415.6C455.974 416.245 449.177 410.493 448.532 402.754C447.887 395.014 453.638 388.217 461.378 387.572L517.651 382.883C525.391 382.238 532.188 387.989 532.833 395.729Z" fill="#1AB5F8"></path> <path fill-rule="evenodd" clip-rule="evenodd" d="M532.833 395.729C533.478 403.468 527.727 410.265 519.987 410.91L463.714 415.6C455.974 416.245 449.177 410.493 448.532 402.754C447.887 395.014 453.638 388.217 461.378 387.572L517.651 382.883C525.391 382.238 532.188 387.989 532.833 395.729Z" fill="url(#paint3_linear_163_827)"></path> <path fill-rule="evenodd" clip-rule="evenodd" d="M167.165 395.729C167.81 387.989 174.607 382.238 182.347 382.883L238.62 387.572C246.36 388.217 252.111 395.014 251.466 402.754C250.822 410.493 244.024 416.245 236.285 415.6L180.011 410.91C172.272 410.265 166.52 403.468 167.165 395.729Z" fill="#1AB5F8"></path> <path fill-rule="evenodd" clip-rule="evenodd" d="M167.165 395.729C167.81 387.989 174.607 382.238 182.347 382.883L238.62 387.572C246.36 388.217 252.111 395.014 251.466 402.754C250.822 410.493 244.024 416.245 236.285 415.6L180.011 410.91C172.272 410.265 166.52 403.468 167.165 395.729Z" fill="url(#paint4_linear_163_827)"></path> <path fill-rule="evenodd" clip-rule="evenodd" d="M280.385 411.197C282.299 405.454 287.673 401.581 293.726 401.581H406.273C412.326 401.581 417.699 405.454 419.614 411.197L438.371 467.47C440.827 474.838 436.845 482.802 429.477 485.258C422.11 487.714 414.146 483.732 411.69 476.364L396.137 429.706H303.862L288.309 476.364C285.853 483.732 277.889 487.714 270.521 485.258C263.153 482.802 259.171 474.838 261.627 467.47L280.385 411.197Z" fill="#1AB5F8"></path> <path fill-rule="evenodd" clip-rule="evenodd" d="M280.385 411.197C282.299 405.454 287.673 401.581 293.726 401.581H406.273C412.326 401.581 417.699 405.454 419.614 411.197L438.371 467.47C440.827 474.838 436.845 482.802 429.477 485.258C422.11 487.714 414.146 483.732 411.69 476.364L396.137 429.706H303.862L288.309 476.364C285.853 483.732 277.889 487.714 270.521 485.258C263.153 482.802 259.171 474.838 261.627 467.47L280.385 411.197Z" fill="url(#paint5_linear_163_827)"></path> <path fill-rule="evenodd" clip-rule="evenodd" d="M532.462 299.698C534.346 307.233 529.765 314.868 522.23 316.752L484.715 326.13C477.18 328.014 469.545 323.433 467.661 315.898C465.778 308.364 470.359 300.729 477.893 298.845L515.409 289.466C522.943 287.583 530.578 292.164 532.462 299.698Z" fill="#1AB5F8"></path> <path fill-rule="evenodd" clip-rule="evenodd" d="M532.462 299.698C534.346 307.233 529.765 314.868 522.23 316.752L484.715 326.13C477.18 328.014 469.545 323.433 467.661 315.898C465.778 308.364 470.359 300.729 477.893 298.845L515.409 289.466C522.943 287.583 530.578 292.164 532.462 299.698Z" fill="url(#paint6_linear_163_827)"></path> <path fill-rule="evenodd" clip-rule="evenodd" d="M167.536 299.698C169.42 292.164 177.055 287.583 184.59 289.466L222.105 298.845C229.64 300.729 234.221 308.364 232.337 315.898C230.454 323.433 222.819 328.014 215.284 326.13L177.768 316.752C170.234 314.868 165.653 307.233 167.536 299.698Z" fill="#1AB5F8"></path> <path fill-rule="evenodd" clip-rule="evenodd" d="M167.536 299.698C169.42 292.164 177.055 287.583 184.59 289.466L222.105 298.845C229.64 300.729 234.221 308.364 232.337 315.898C230.454 323.433 222.819 328.014 215.284 326.13L177.768 316.752C170.234 314.868 165.653 307.233 167.536 299.698Z" fill="url(#paint7_linear_163_827)"></path> <path fill-rule="evenodd" clip-rule="evenodd" d="M279.677 232.758C264.815 232.758 251.788 242.766 247.967 257.14L232.758 314.213V321.863C232.758 329.63 226.462 335.926 218.695 335.926C210.929 335.926 204.633 329.63 204.633 321.863V312.372C204.633 311.149 204.792 309.932 205.107 308.751L220.788 249.907C227.889 223.207 252.074 204.633 279.677 204.633H421.936C450.149 204.633 474.675 223.994 481.233 251.443L481.234 251.449L494.984 309.11C495.238 310.179 495.367 311.273 495.367 312.372V321.863C495.367 329.63 489.071 335.926 481.305 335.926C473.538 335.926 467.242 329.63 467.242 321.863V314.025L453.877 257.978C450.343 243.184 437.129 232.758 421.936 232.758H279.677Z" fill="#1AB5F8"></path> <path fill-rule="evenodd" clip-rule="evenodd" d="M279.677 232.758C264.815 232.758 251.788 242.766 247.967 257.14L232.758 314.213V321.863C232.758 329.63 226.462 335.926 218.695 335.926C210.929 335.926 204.633 329.63 204.633 321.863V312.372C204.633 311.149 204.792 309.932 205.107 308.751L220.788 249.907C227.889 223.207 252.074 204.633 279.677 204.633H421.936C450.149 204.633 474.675 223.994 481.233 251.443L481.234 251.449L494.984 309.11C495.238 310.179 495.367 311.273 495.367 312.372V321.863C495.367 329.63 489.071 335.926 481.305 335.926C473.538 335.926 467.242 329.63 467.242 321.863V314.025L453.877 257.978C450.343 243.184 437.129 232.758 421.936 232.758H279.677Z" fill="url(#paint8_linear_163_827)"></path> <defs> <linearGradient id="paint0_linear_163_827" x1="349.999" y1="204.633" x2="349.999" y2="532.887" gradientUnits="userSpaceOnUse"> <stop stop-color="#3AD4DB"></stop> <stop offset="1" stop-color="#1AB5F8"></stop> <stop offset="1" stop-color="#1AB5F8"></stop> </linearGradient> <linearGradient id="paint1_linear_163_827" x1="349.999" y1="204.633" x2="349.999" y2="532.887" gradientUnits="userSpaceOnUse"> <stop stop-color="#3AD4DB"></stop> <stop offset="1" stop-color="#1AB5F8"></stop> <stop offset="1" stop-color="#1AB5F8"></stop> </linearGradient> <linearGradient id="paint2_linear_163_827" x1="349.999" y1="204.633" x2="349.999" y2="532.887" gradientUnits="userSpaceOnUse"> <stop stop-color="#3AD4DB"></stop> <stop offset="1" stop-color="#1AB5F8"></stop> <stop offset="1" stop-color="#1AB5F8"></stop> </linearGradient> <linearGradient id="paint3_linear_163_827" x1="349.999" y1="204.633" x2="349.999" y2="532.887" gradientUnits="userSpaceOnUse"> <stop stop-color="#3AD4DB"></stop> <stop offset="1" stop-color="#1AB5F8"></stop> <stop offset="1" stop-color="#1AB5F8"></stop> </linearGradient> <linearGradient id="paint4_linear_163_827" x1="349.999" y1="204.633" x2="349.999" y2="532.887" gradientUnits="userSpaceOnUse"> <stop stop-color="#3AD4DB"></stop> <stop offset="1" stop-color="#1AB5F8"></stop> <stop offset="1" stop-color="#1AB5F8"></stop> </linearGradient> <linearGradient id="paint5_linear_163_827" x1="349.999" y1="204.633" x2="349.999" y2="532.887" gradientUnits="userSpaceOnUse"> <stop stop-color="#3AD4DB"></stop> <stop offset="1" stop-color="#1AB5F8"></stop> <stop offset="1" stop-color="#1AB5F8"></stop> </linearGradient> <linearGradient id="paint6_linear_163_827" x1="349.999" y1="204.633" x2="349.999" y2="532.887" gradientUnits="userSpaceOnUse"> <stop stop-color="#3AD4DB"></stop> <stop offset="1" stop-color="#1AB5F8"></stop> <stop offset="1" stop-color="#1AB5F8"></stop> </linearGradient> <linearGradient id="paint7_linear_163_827" x1="349.999" y1="204.633" x2="349.999" y2="532.887" gradientUnits="userSpaceOnUse"> <stop stop-color="#3AD4DB"></stop> <stop offset="1" stop-color="#1AB5F8"></stop> <stop offset="1" stop-color="#1AB5F8"></stop> </linearGradient> <linearGradient id="paint8_linear_163_827" x1="349.999" y1="204.633" x2="349.999" y2="532.887" gradientUnits="userSpaceOnUse"> <stop stop-color="#3AD4DB"></stop> <stop offset="1" stop-color="#1AB5F8"></stop> <stop offset="1" stop-color="#1AB5F8"></stop> </linearGradient> </defs> </svg> 