<?xml version="1.0" encoding="UTF-8"?> <svg xmlns="http://www.w3.org/2000/svg" width="24" height="24" viewBox="0 0 24 24" fill="none"> <path fill-rule="evenodd" clip-rule="evenodd" d="M17.7598 20.64H6.23982C5.17902 20.64 4.31982 19.7808 4.31982 18.72V8.63995C4.31982 7.84507 4.96494 7.19995 5.75982 7.19995H18.2398C19.0347 7.19995 19.6798 7.84507 19.6798 8.63995V18.72C19.6798 19.7808 18.8206 20.64 17.7598 20.64Z" stroke="#051E29" stroke-width="1.5" stroke-linecap="round" stroke-linejoin="round"></path> <path d="M15.8389 10.3679C15.7064 10.3679 15.5989 10.4754 15.5999 10.6079C15.5999 10.7404 15.7074 10.8479 15.8399 10.8479C15.9723 10.8479 16.0799 10.7404 16.0799 10.6079C16.0799 10.4754 15.9723 10.3679 15.8389 10.3679" stroke="#051E29" stroke-width="1.5" stroke-linecap="round" stroke-linejoin="round"></path> <path d="M8.15873 10.3679C8.02625 10.3679 7.91873 10.4754 7.91969 10.6079C7.91969 10.7404 8.02721 10.8479 8.15969 10.8479C8.29217 10.8479 8.39969 10.7404 8.39969 10.6079C8.39969 10.4754 8.29217 10.3679 8.15873 10.3679" stroke="#051E29" stroke-width="1.5" stroke-linecap="round" stroke-linejoin="round"></path> <path d="M8.15967 7.19999V6.95999V6.95999C8.15967 4.97183 9.77151 3.35999 11.7597 3.35999H12.2397C14.2278 3.35999 15.8397 4.97183 15.8397 6.95999V6.95999V7.19999" stroke="#051E29" stroke-width="1.5" stroke-linecap="round" stroke-linejoin="round"></path> </svg> 