<?xml version="1.0" encoding="UTF-8"?> <svg xmlns="http://www.w3.org/2000/svg" width="700" height="700" viewBox="0 0 700 700" fill="none"> <rect width="700" height="700" fill="white"></rect> <path fill-rule="evenodd" clip-rule="evenodd" d="M477.933 342.037L365.227 504.843C354.896 519.75 331.514 512.456 331.514 494.306V387H237.296C222.371 387 213.577 370.237 222.09 357.956L334.796 195.15C345.127 180.243 368.508 187.537 368.508 205.687V312.993H462.727C477.633 312.993 486.427 329.756 477.933 342.037Z" stroke="#323232" stroke-width="28.8431" stroke-linecap="round" stroke-linejoin="round"></path> <path fill-rule="evenodd" clip-rule="evenodd" d="M477.933 342.037L365.227 504.843C354.896 519.75 331.514 512.456 331.514 494.306V387H237.296C222.371 387 213.577 370.237 222.09 357.956L334.796 195.15C345.127 180.243 368.508 187.537 368.508 205.687V312.993H462.727C477.633 312.993 486.427 329.756 477.933 342.037Z" stroke="url(#paint0_linear_465_935)" stroke-width="28.8431" stroke-linecap="round" stroke-linejoin="round"></path> <defs> <linearGradient id="paint0_linear_465_935" x1="350.006" y1="187.146" x2="350.006" y2="512.846" gradientUnits="userSpaceOnUse"> <stop stop-color="#3AD4DB"></stop> <stop offset="1" stop-color="#1AB5F8"></stop> <stop offset="1" stop-color="#1AB5F8"></stop> </linearGradient> </defs> </svg> 