<?xml version="1.0" encoding="UTF-8"?> <svg xmlns="http://www.w3.org/2000/svg" width="700" height="700" viewBox="0 0 700 700" fill="none"> <rect width="700" height="700" fill="white"></rect> <path d="M537.582 518.822H162.426M490.551 462.549V518.822M312.483 162.424V199.939M237.452 518.822V274.971C237.452 264.611 245.85 256.213 256.21 256.213H368.757C379.116 256.213 387.515 264.611 387.515 274.971V518.822M284.347 425.033H340.62M284.347 368.76H340.62M284.347 312.486H340.62M312.483 490.686V518.822M237.458 368.759H199.943C189.583 368.759 181.185 377.157 181.185 387.517V518.821M490.689 462.55C464.801 462.55 443.795 441.563 443.795 415.675V378.12C443.795 352.232 464.801 331.245 490.689 331.245C516.578 331.245 537.584 352.232 537.584 378.12V415.675C537.584 441.563 516.578 462.55 490.689 462.55ZM293.726 199.939H331.241C341.601 199.939 349.999 208.338 349.999 218.697V256.213H274.968V218.697C274.968 208.338 283.366 199.939 293.726 199.939Z" stroke="url(#paint0_linear_306_1898)" stroke-width="28.125" stroke-linecap="round" stroke-linejoin="round"></path> <defs> <linearGradient id="paint0_linear_306_1898" x1="350.005" y1="162.424" x2="350.005" y2="518.822" gradientUnits="userSpaceOnUse"> <stop stop-color="#3AD4DB"></stop> <stop offset="1" stop-color="#1AB5F8"></stop> <stop offset="1" stop-color="#1AB5F8"></stop> </linearGradient> </defs> </svg> 