<?xml version="1.0" encoding="UTF-8"?> <svg xmlns="http://www.w3.org/2000/svg" width="1164" height="390" viewBox="0 0 1164 390" fill="none"> <path d="M507.131 316.69V256.81H544.851V263.84H514.511V316.69H507.131Z" fill="#3E667B"></path> <path d="M560.611 317.94C556.161 317.94 552.321 316.93 549.091 314.9C545.881 312.88 543.411 310.08 541.671 306.5C539.931 302.92 539.061 298.82 539.061 294.19C539.061 289.48 539.941 285.35 541.711 281.8C543.481 278.25 545.981 275.49 549.211 273.53C552.441 271.53 556.241 270.54 560.611 270.54C565.091 270.54 568.941 271.55 572.181 273.58C575.411 275.58 577.891 278.36 579.601 281.94C581.341 285.49 582.211 289.58 582.211 294.21C582.211 298.9 581.341 303.03 579.601 306.6C577.861 310.15 575.371 312.93 572.141 314.96C568.901 316.94 565.061 317.94 560.611 317.94ZM560.611 310.91C565.251 310.91 568.711 309.36 570.971 306.25C573.241 303.15 574.371 299.13 574.371 294.19C574.371 289.12 573.221 285.08 570.931 282.09C568.641 279.07 565.201 277.56 560.611 277.56C557.491 277.56 554.921 278.27 552.901 279.68C550.881 281.09 549.381 283.05 548.381 285.54C547.391 288.03 546.891 290.92 546.891 294.19C546.891 299.24 548.051 303.28 550.371 306.33C552.701 309.39 556.111 310.91 560.611 310.91Z" fill="#3E667B"></path> <path d="M608.581 317.94C604.381 317.94 600.84 316.9 597.97 314.82C595.1 312.71 592.91 309.87 591.42 306.3C589.95 302.7 589.22 298.66 589.22 294.2C589.22 289.68 589.95 285.63 591.42 282.06C592.91 278.48 595.09 275.67 597.97 273.62C600.87 271.57 604.42 270.54 608.62 270.54C612.77 270.54 616.33 271.58 619.32 273.66C622.33 275.71 624.64 278.52 626.24 282.1C627.84 285.68 628.641 289.71 628.641 294.2C628.641 298.69 627.84 302.72 626.24 306.3C624.64 309.88 622.33 312.72 619.32 314.82C616.33 316.9 612.761 317.94 608.581 317.94ZM587.98 336.65V271.78H594.57V304.84H595.401V336.65H587.98ZM607.67 311.16C610.63 311.16 613.07 310.41 615.01 308.91C616.94 307.41 618.39 305.39 619.36 302.84C620.33 300.26 620.81 297.38 620.81 294.19C620.81 291.03 620.33 288.17 619.36 285.62C618.42 283.07 616.96 281.05 614.97 279.55C613.01 278.05 610.51 277.3 607.47 277.3C604.57 277.3 602.16 278.02 600.26 279.46C598.35 280.87 596.93 282.86 595.99 285.41C595.05 287.93 594.581 290.86 594.581 294.18C594.581 297.45 595.041 300.38 595.951 302.95C596.891 305.5 598.33 307.51 600.26 308.98C602.19 310.44 604.66 311.16 607.67 311.16Z" fill="#3E667B"></path> <path d="M653.49 317.94C649.04 317.94 645.2 316.93 641.97 314.9C638.76 312.88 636.29 310.08 634.55 306.5C632.81 302.92 631.94 298.82 631.94 294.19C631.94 289.48 632.82 285.35 634.59 281.8C636.36 278.25 638.86 275.49 642.09 273.53C645.32 271.53 649.12 270.54 653.49 270.54C657.97 270.54 661.82 271.55 665.06 273.58C668.29 275.58 670.77 278.36 672.48 281.94C674.22 285.49 675.09 289.58 675.09 294.21C675.09 298.9 674.22 303.03 672.48 306.6C670.74 310.15 668.25 312.93 665.02 314.96C661.78 316.94 657.93 317.94 653.49 317.94ZM653.49 310.91C658.13 310.91 661.59 309.36 663.85 306.25C666.12 303.15 667.25 299.13 667.25 294.19C667.25 289.12 666.1 285.08 663.81 282.09C661.52 279.07 658.08 277.56 653.49 277.56C650.37 277.56 647.8 278.27 645.78 279.68C643.76 281.09 642.26 283.05 641.26 285.54C640.27 288.03 639.77 290.92 639.77 294.19C639.77 299.24 640.93 303.28 643.25 306.33C645.57 309.39 648.98 310.91 653.49 310.91Z" fill="#3E667B"></path> <path d="M677.58 326.67V310.58C680.1 310.58 681.89 309.76 682.97 308.13C684.05 306.47 684.92 303.74 685.58 299.94C686.02 297.56 686.38 295.01 686.66 292.29C686.94 289.57 687.17 286.55 687.36 283.22C687.58 279.87 687.79 276.05 687.98 271.79H718.82V310.59H723.17V326.68H716.12V316.7H684.62V326.68H677.58V326.67ZM688.94 310.58H711.45V277.9H694.66C694.58 279.87 694.47 281.93 694.33 284.1C694.19 286.23 694.03 288.37 693.83 290.5C693.66 292.64 693.46 294.66 693.21 296.57C692.99 298.45 692.73 300.15 692.42 301.64C692.06 303.72 691.65 305.48 691.18 306.92C690.7 308.36 689.96 309.58 688.94 310.58Z" fill="#3E667B"></path> <path d="M753.311 316.69V278.52H737.721V271.78H776.271V278.52H760.681V316.69H753.311Z" fill="#3E667B"></path> <path d="M780.771 316.69V271.78H799.84C800.97 271.78 802.19 271.85 803.49 271.99C804.81 272.1 806.02 272.31 807.09 272.61C809.5 273.25 811.471 274.56 813.021 276.56C814.591 278.53 815.38 281.02 815.38 284.05C815.38 285.74 815.12 287.21 814.59 288.46C814.1 289.71 813.37 290.79 812.44 291.7C812.02 292.12 811.56 292.49 811.07 292.82C810.58 293.15 810.08 293.42 809.58 293.61C810.55 293.78 811.531 294.15 812.521 294.73C814.101 295.59 815.33 296.8 816.21 298.35C817.12 299.9 817.58 301.88 817.58 304.3C817.58 307.35 816.85 309.87 815.38 311.87C813.92 313.84 811.9 315.2 809.33 315.95C808.25 316.26 807.07 316.46 805.76 316.57C804.46 316.65 803.21 316.7 801.99 316.7H780.771V316.69ZM788.23 310.66H801.57C802.16 310.66 802.841 310.6 803.651 310.49C804.481 310.38 805.21 310.24 805.85 310.07C807.28 309.65 808.32 308.88 808.95 307.74C809.62 306.6 809.95 305.37 809.95 304.04C809.95 302.27 809.45 300.82 808.46 299.72C807.49 298.61 806.2 297.92 804.6 297.64C804.02 297.47 803.38 297.38 802.69 297.35C802.03 297.32 801.431 297.31 800.911 297.31H788.23V310.66ZM788.23 291.2H799.34C800.11 291.2 800.931 291.16 801.791 291.08C802.651 290.97 803.401 290.79 804.031 290.54C805.301 290.07 806.221 289.29 806.801 288.21C807.411 287.1 807.71 285.9 807.71 284.59C807.71 283.15 807.38 281.89 806.72 280.81C806.08 279.7 805.101 278.94 803.781 278.52C802.901 278.19 801.901 278.01 800.801 277.98C799.721 277.93 799.03 277.9 798.72 277.9H788.24V291.2H788.23Z" fill="#3E667B"></path> <path d="M841.661 317.94C837.211 317.94 833.371 316.93 830.131 314.9C826.921 312.88 824.451 310.08 822.711 306.5C820.971 302.92 820.101 298.82 820.101 294.19C820.101 289.48 820.981 285.35 822.751 281.8C824.521 278.25 827.031 275.49 830.251 273.53C833.481 271.53 837.281 270.54 841.651 270.54C846.131 270.54 849.981 271.55 853.211 273.58C856.441 275.58 858.921 278.36 860.631 281.94C862.371 285.49 863.241 289.58 863.241 294.21C863.241 298.9 862.361 303.03 860.631 306.6C858.891 310.15 856.401 312.93 853.171 314.96C849.951 316.94 846.111 317.94 841.661 317.94ZM841.661 310.91C846.311 310.91 849.761 309.36 852.021 306.25C854.281 303.14 855.421 299.13 855.421 294.19C855.421 289.12 854.271 285.08 851.981 282.09C849.691 279.07 846.251 277.56 841.661 277.56C838.531 277.56 835.971 278.27 833.951 279.68C831.931 281.09 830.431 283.05 829.431 285.54C828.431 288.03 827.941 290.92 827.941 294.19C827.941 299.24 829.101 303.28 831.421 306.33C833.741 309.38 837.151 310.91 841.661 310.91Z" fill="#3E667B"></path> <path d="M889.63 317.94C885.43 317.94 881.9 316.9 879.02 314.82C876.14 312.71 873.96 309.87 872.47 306.3C871 302.7 870.27 298.66 870.27 294.2C870.27 289.68 871 285.63 872.47 282.06C873.96 278.48 876.14 275.67 879.02 273.62C881.92 271.57 885.47 270.54 889.67 270.54C893.82 270.54 897.38 271.58 900.36 273.66C903.37 275.71 905.68 278.52 907.28 282.1C908.88 285.68 909.68 289.71 909.68 294.2C909.68 298.69 908.88 302.72 907.28 306.3C905.67 309.88 903.37 312.72 900.36 314.82C897.38 316.9 893.8 317.94 889.63 317.94ZM869.03 336.65V271.78H875.62V304.84H876.44V336.65H869.03ZM888.71 311.16C891.67 311.16 894.12 310.41 896.05 308.91C897.99 307.41 899.44 305.39 900.41 302.84C901.38 300.26 901.86 297.38 901.86 294.19C901.86 291.03 901.38 288.17 900.41 285.62C899.47 283.07 898.01 281.05 896.02 279.55C894.05 278.05 891.56 277.3 888.52 277.3C885.62 277.3 883.21 278.02 881.31 279.46C879.4 280.87 877.98 282.86 877.04 285.41C876.1 287.93 875.63 290.86 875.63 294.18C875.63 297.45 876.09 300.38 877 302.95C877.94 305.5 879.37 307.51 881.31 308.98C883.23 310.44 885.7 311.16 888.71 311.16Z" fill="#3E667B"></path> <path d="M942.411 316.69V300.51C940.911 301.26 939.101 301.9 936.981 302.42C934.881 302.95 932.631 303.21 930.221 303.21C925.661 303.21 921.991 302.18 919.191 300.13C916.401 298.08 914.581 295.13 913.721 291.27C913.471 290.11 913.291 288.9 913.181 287.65C913.091 286.4 913.041 285.27 913.011 284.24C912.981 283.21 912.971 282.47 912.971 281.99V271.76H920.431V281.99C920.431 282.79 920.461 283.79 920.521 284.98C920.571 286.14 920.711 287.28 920.931 288.39C921.481 291.13 922.631 293.2 924.371 294.59C926.141 295.98 928.621 296.67 931.831 296.67C933.991 296.67 935.981 296.39 937.801 295.84C939.621 295.29 941.161 294.55 942.401 293.64V271.77H949.821V316.68H942.411V316.69Z" fill="#3E667B"></path> <path d="M977.53 317.94C973.14 317.94 969.3 316.97 966.01 315.03C962.75 313.06 960.21 310.33 958.38 306.84C956.56 303.32 955.65 299.22 955.65 294.53C955.65 289.62 956.55 285.38 958.35 281.81C960.14 278.21 962.65 275.43 965.85 273.49C969.08 271.52 972.87 270.54 977.2 270.54C981.71 270.54 985.54 271.58 988.68 273.66C991.86 275.74 994.24 278.7 995.81 282.56C997.41 286.41 998.1 291 997.88 296.32H990.42V293.66C990.34 288.14 989.22 284.03 987.06 281.31C984.9 278.57 981.7 277.19 977.44 277.19C972.88 277.19 969.41 278.66 967.04 281.6C964.66 284.54 963.47 288.75 963.47 294.24C963.47 299.53 964.66 303.64 967.04 306.55C969.41 309.46 972.8 310.92 977.19 310.92C980.15 310.92 982.72 310.24 984.9 308.88C987.09 307.52 988.8 305.57 990.04 303.02L997.13 305.47C995.39 309.43 992.77 312.51 989.26 314.7C985.78 316.86 981.87 317.94 977.53 317.94ZM960.99 296.32V290.37H994.07V296.32H960.99Z" fill="#3E667B"></path> <path d="M1022.66 317.94C1018.13 317.94 1014.27 316.93 1011.1 314.9C1007.95 312.85 1005.54 310.03 1003.89 306.46C1002.23 302.88 1001.37 298.81 1001.32 294.23C1001.37 289.54 1002.25 285.43 1003.93 281.88C1005.64 278.3 1008.08 275.52 1011.27 273.52C1014.45 271.52 1018.27 270.53 1022.75 270.53C1027.47 270.53 1031.53 271.69 1034.93 274.02C1038.36 276.35 1040.65 279.54 1041.81 283.58L1034.52 285.78C1033.58 283.17 1032.05 281.15 1029.92 279.71C1027.81 278.27 1025.4 277.55 1022.66 277.55C1019.59 277.55 1017.07 278.27 1015.08 279.71C1013.09 281.12 1011.61 283.09 1010.64 285.61C1009.67 288.1 1009.17 290.97 1009.14 294.22C1009.2 299.21 1010.35 303.24 1012.58 306.32C1014.84 309.37 1018.2 310.89 1022.65 310.89C1025.58 310.89 1028.01 310.22 1029.94 308.89C1031.88 307.53 1033.34 305.58 1034.34 303.03L1041.8 304.98C1040.25 309.17 1037.83 312.37 1034.54 314.59C1031.27 316.83 1027.31 317.94 1022.66 317.94Z" fill="#3E667B"></path> <path d="M1058 316.69V278.52H1042.41V271.78H1080.96V278.52H1065.37V316.69H1058Z" fill="#3E667B"></path> <path d="M1085.46 316.69V271.78H1104.53C1105.67 271.78 1106.88 271.85 1108.18 271.99C1109.51 272.1 1110.71 272.31 1111.79 272.61C1114.19 273.25 1116.17 274.56 1117.72 276.56C1119.3 278.53 1120.09 281.02 1120.09 284.05C1120.09 285.74 1119.82 287.21 1119.3 288.46C1118.8 289.71 1118.08 290.79 1117.14 291.7C1116.72 292.12 1116.26 292.49 1115.77 292.82C1115.27 293.15 1114.77 293.42 1114.27 293.61C1115.24 293.78 1116.22 294.15 1117.21 294.73C1118.79 295.59 1120.02 296.8 1120.9 298.35C1121.81 299.9 1122.27 301.88 1122.27 304.3C1122.27 307.35 1121.54 309.87 1120.08 311.87C1118.61 313.84 1116.59 315.2 1114.02 315.95C1112.94 316.26 1111.76 316.46 1110.45 316.57C1109.15 316.65 1107.9 316.7 1106.68 316.7H1085.46V316.69ZM1092.92 310.66H1106.27C1106.85 310.66 1107.54 310.6 1108.34 310.49C1109.17 310.38 1109.9 310.24 1110.54 310.07C1111.97 309.65 1113.01 308.88 1113.65 307.74C1114.31 306.6 1114.64 305.37 1114.64 304.04C1114.64 302.27 1114.14 300.82 1113.15 299.72C1112.18 298.61 1110.9 297.92 1109.29 297.64C1108.71 297.47 1108.07 297.38 1107.38 297.35C1106.72 297.32 1106.13 297.31 1105.6 297.31H1092.92V310.66ZM1092.92 291.2H1104.03C1104.8 291.2 1105.62 291.16 1106.48 291.08C1107.34 290.97 1108.09 290.79 1108.72 290.54C1109.99 290.07 1110.91 289.29 1111.5 288.21C1112.11 287.1 1112.41 285.9 1112.41 284.59C1112.41 283.15 1112.08 281.89 1111.41 280.81C1110.77 279.7 1109.8 278.94 1108.47 278.52C1107.59 278.19 1106.6 278.01 1105.49 277.98C1104.41 277.93 1103.72 277.9 1103.41 277.9H1092.93V291.2H1092.92Z" fill="#3E667B"></path> <path d="M1140.01 317.94C1136.66 317.94 1133.86 317.33 1131.59 316.11C1129.35 314.86 1127.65 313.23 1126.49 311.2C1125.35 309.18 1124.79 306.96 1124.79 304.55C1124.79 302.19 1125.23 300.16 1126.11 298.44C1127.02 296.69 1128.3 295.25 1129.92 294.12C1131.56 292.96 1133.5 292.04 1135.77 291.38C1137.9 290.8 1140.28 290.3 1142.9 289.88C1145.55 289.44 1148.23 289.03 1150.94 288.67C1153.65 288.31 1156.18 287.96 1158.52 287.63L1155.87 289.17C1155.95 285.18 1155.15 282.23 1153.47 280.31C1151.81 278.4 1148.93 277.44 1144.85 277.44C1142.14 277.44 1139.76 278.06 1137.72 279.31C1135.71 280.53 1134.28 282.53 1133.45 285.3L1126.45 283.18C1127.53 279.24 1129.62 276.15 1132.71 273.91C1135.81 271.66 1139.88 270.54 1144.94 270.54C1149.01 270.54 1152.49 271.28 1155.39 272.74C1158.32 274.18 1160.42 276.37 1161.69 279.31C1162.33 280.7 1162.72 282.21 1162.89 283.84C1163.06 285.45 1163.14 287.14 1163.14 288.91V316.69H1156.59V305.92L1158.12 306.92C1156.43 310.55 1154.08 313.3 1151.04 315.15C1148.02 317.01 1144.34 317.94 1140.01 317.94ZM1141.12 311.74C1143.78 311.74 1146.07 311.27 1148 310.33C1149.96 309.36 1151.54 308.1 1152.72 306.55C1153.91 304.97 1154.69 303.25 1155.04 301.39C1155.46 300 1155.68 298.47 1155.71 296.77C1155.77 295.05 1155.79 293.73 1155.79 292.82L1158.37 293.94C1155.96 294.27 1153.6 294.59 1151.28 294.9C1148.96 295.21 1146.76 295.54 1144.69 295.9C1142.62 296.23 1140.75 296.64 1139.1 297.11C1137.88 297.5 1136.73 298 1135.66 298.61C1134.61 299.22 1133.76 300.01 1133.09 300.98C1132.45 301.92 1132.13 303.1 1132.13 304.51C1132.13 305.73 1132.43 306.89 1133.04 308C1133.68 309.11 1134.65 310.01 1135.94 310.7C1137.27 311.4 1138.99 311.74 1141.12 311.74Z" fill="#3E667B"></path> <path d="M586.76 46.5701H555.49L506.86 195.61H529.41L540.36 161.97H601.77L612.85 195.61H635.4L586.76 46.5701ZM546.95 141.69L570.87 68.1901L595.07 141.69H546.95Z" fill="#051E29"></path> <path d="M748.611 115.95V150.59C748.611 155.07 748.651 158.97 748.721 162.28C748.861 165.59 749.581 168.39 750.901 170.67C753.401 174.95 757.341 177.39 762.741 178.01C768.211 178.56 774.621 178.32 781.971 177.29V195.61C774.901 196.98 767.981 197.57 761.191 197.37C754.401 197.16 748.341 195.85 743.011 193.43C737.681 191.01 733.651 187.22 730.961 182.05C728.541 177.43 727.221 172.74 727.011 167.98C726.871 163.15 726.811 157.7 726.811 151.63V112.13C717.531 108.52 710.991 103.66 695.701 103.66C681.941 103.66 673.331 114.07 669.701 123.98C669.431 124.86 669.201 125.76 668.991 126.69C668.091 130.63 667.641 134.8 667.641 139.21V195.62H645.721V83.83H665.051V98.69C670.871 89.62 681.331 82.24 695.711 82.24C708.051 82.24 717.471 86.28 726.821 89.74V52.78H748.641V94.57C752.041 94.58 755.641 94.19 759.531 93.27C773.441 89.94 790.141 81.81 796.651 77.7V99.75C790.141 104.08 773.671 113.84 759.531 115.32C755.451 115.76 751.851 115.94 748.611 115.95Z" fill="#051E29"></path> <path d="M840.97 198.71C829.75 198.71 820.02 196.19 811.77 191.15C803.53 186.11 797.15 179.18 792.65 170.35C788.21 161.45 786 151.2 786 139.61C786 127.95 788.29 117.7 792.85 108.87C797.42 99.97 803.83 93.07 812.08 88.17C820.32 83.2 829.95 80.72 840.96 80.72C852.18 80.72 861.91 83.24 870.16 88.27C878.4 93.31 884.78 100.24 889.28 109.07C893.78 117.9 896.03 128.08 896.03 139.6C896.03 151.26 893.74 161.54 889.17 170.44C884.67 179.27 878.3 186.21 870.05 191.24C861.81 196.23 852.12 198.71 840.97 198.71ZM840.97 178.32C851.71 178.32 859.7 174.73 864.97 167.56C870.3 160.31 872.97 151 872.97 139.62C872.97 127.96 870.27 118.64 864.87 111.68C859.54 104.64 851.57 101.12 840.98 101.12C833.71 101.12 827.72 102.78 823.01 106.09C818.3 109.33 814.8 113.85 812.51 119.65C810.22 125.38 809.09 132.04 809.09 139.62C809.09 151.35 811.79 160.73 817.19 167.77C822.57 174.8 830.5 178.32 840.97 178.32Z" fill="#051E29"></path> <path d="M930.391 195.61L896.101 83.73L917.601 83.83L941.091 160.52L964.781 83.83H983.481L1007.17 160.52L1030.65 83.83H1052.05L1017.77 195.61H1000.31L974.131 114.68L947.841 195.61H930.391Z" fill="#051E29"></path> <path d="M1163.13 133.5V195.6H1141.1V140.64C1141.1 136.3 1140.72 131.85 1139.96 127.29C1139.27 122.67 1137.88 118.39 1135.81 114.46C1133.8 110.52 1130.93 107.35 1127.19 104.94C1123.52 102.52 1118.71 101.31 1112.75 101.31C1108.87 101.31 1105.2 101.97 1101.74 103.28C1098.28 104.52 1095.23 106.56 1092.6 109.39C1090.03 112.22 1087.99 115.95 1086.46 120.56C1085.01 125.18 1084.28 130.81 1084.28 137.43V195.6H1062.25V83.8301H1081.68V97.2601C1084.8 93.3101 1088.54 90.0001 1092.9 87.3501C1100.03 83.0001 1108.65 80.8301 1118.77 80.8301C1126.53 80.8301 1133.04 82.0701 1138.31 84.5601C1143.57 87.0401 1147.83 90.3201 1151.09 94.3901C1154.41 98.3901 1156.94 102.77 1158.67 107.53C1160.4 112.29 1161.58 116.95 1162.2 121.5C1162.81 126.06 1163.13 130.06 1163.13 133.5Z" fill="#051E29"></path> <path d="M11.8501 300.54C5.13013 296.61 0.960127 289.43 0.880127 281.65L0.870117 108.06C0.960117 104.29 2.01012 100.66 3.84012 97.49L172.71 195L172.72 390C168.89 390 165.06 389.01 161.63 387.03L11.9601 300.61C11.9201 300.59 11.8801 300.57 11.8501 300.54Z" fill="url(#paint0_linear_15_1875)"></path> <path d="M161.62 2.97L11.9501 89.38C11.9401 89.39 11.9201 89.4 11.9101 89.4C8.5001 91.38 5.74008 94.19 3.83008 97.49L172.71 194.98V0C168.88 0 165.05 0.990001 161.62 2.97Z" fill="url(#paint1_linear_15_1875)"></path> <path d="M161.62 2.97L86.7803 46.17L172.71 95.77V0C168.88 0 165.05 0.990001 161.62 2.97Z" fill="url(#paint2_linear_15_1875)"></path> <path d="M333.52 89.4C336.93 91.38 339.69 94.19 341.59 97.49L172.71 194.98V0C176.54 0 180.37 0.990001 183.8 2.97L333.47 89.38C333.49 89.39 333.5 89.39 333.52 89.4Z" fill="url(#paint3_linear_15_1875)"></path> <path d="M183.35 387.28C180.03 389.09 176.37 390 172.7 390L172.71 195L341.59 97.49C343.42 100.66 344.47 104.28 344.56 108.06L344.55 281.54C344.5 289.36 340.33 296.58 333.58 300.54L306.03 316.45C299.38 320.29 291.06 315.49 291.06 307.81V244.51C291.06 236.82 282.73 232.02 276.07 235.88L238.08 257.92C231.24 261.89 227.03 269.19 227.03 277.1V349.26C227.03 357.18 222.8 364.5 215.94 368.46L183.35 387.28Z" fill="url(#paint4_linear_15_1875)"></path> <defs> <linearGradient id="paint0_linear_15_1875" x1="5.50062" y1="97.7525" x2="176.796" y2="399.875" gradientUnits="userSpaceOnUse"> <stop stop-color="#1AB5F8"></stop> <stop offset="0.8396" stop-color="#051E29"></stop> </linearGradient> <linearGradient id="paint1_linear_15_1875" x1="50.5236" y1="-22.2762" x2="167.493" y2="197.803" gradientUnits="userSpaceOnUse"> <stop stop-color="#1AB5F8"></stop> <stop offset="1" stop-color="white"></stop> </linearGradient> <linearGradient id="paint2_linear_15_1875" x1="193.398" y1="35.3884" x2="8.24299" y2="134.063" gradientUnits="userSpaceOnUse"> <stop stop-color="#051E29"></stop> <stop offset="1" stop-color="#1AB5F8"></stop> </linearGradient> <linearGradient id="paint3_linear_15_1875" x1="162.306" y1="-16.4965" x2="263.753" y2="157.57" gradientUnits="userSpaceOnUse"> <stop stop-color="#3AD4DB"></stop> <stop offset="1" stop-color="#051E29"></stop> </linearGradient> <linearGradient id="paint4_linear_15_1875" x1="222.688" y1="304.048" x2="346.863" y2="86.7413" gradientUnits="userSpaceOnUse"> <stop stop-color="#2CAC69"></stop> <stop offset="1" stop-color="#3AD4DB"></stop> </linearGradient> </defs> </svg> 