<?xml version="1.0" encoding="UTF-8"?> <svg xmlns="http://www.w3.org/2000/svg" width="700" height="700" viewBox="0 0 700 700" fill="none"> <rect width="700" height="700" fill="white"></rect> <path d="M256.25 303.125V396.875L181.25 303.125V396.875M312.5 350H368.75M378.125 303.198H312.5V396.873H378.125M425 303.125L434.375 396.875H438.388L471.875 340.625L505.363 396.875H509.375L518.75 303.125M483.353 246.88C479.041 241.273 474.466 235.817 469.328 230.68C403.422 164.773 296.585 164.773 230.678 230.68C225.541 235.817 220.985 241.273 216.653 246.88M216.653 453.125C220.966 458.731 225.541 464.188 230.678 469.325C296.585 535.231 403.422 535.231 469.328 469.325C474.466 464.188 479.022 458.731 483.353 453.125" stroke="url(#paint0_linear_389_408)" stroke-width="28.125" stroke-linecap="round" stroke-linejoin="round"></path> <defs> <linearGradient id="paint0_linear_389_408" x1="350" y1="181.25" x2="350" y2="518.755" gradientUnits="userSpaceOnUse"> <stop stop-color="#3AD4DB"></stop> <stop offset="1" stop-color="#1AB5F8"></stop> <stop offset="1" stop-color="#1AB5F8"></stop> </linearGradient> </defs> </svg> 