<?xml version="1.0" encoding="UTF-8"?> <svg xmlns="http://www.w3.org/2000/svg" width="700" height="700" viewBox="0 0 700 700" fill="none"> <rect width="700" height="700" fill="white"></rect> <path d="M350 218.75V181.25M162.5 368.75H200M216.873 235.632L237.498 256.257M483.125 235.632L462.5 256.257M537.5 366.882H500M181.25 451.257C201.875 441.882 228.125 441.882 248.75 451.257C269.375 460.632 295.625 460.632 316.25 451.257C336.875 441.882 363.125 441.882 383.75 451.257C404.375 460.632 430.625 460.632 451.25 451.257C471.875 441.882 498.125 441.882 518.75 451.257M248.752 511.243C269.377 520.618 295.627 520.618 316.252 511.243C336.877 501.868 363.127 501.868 383.752 511.243C404.377 520.618 430.627 520.618 451.252 511.243M256.25 368.75C256.25 316.25 297.5 275 350 275C402.5 275 443.75 316.25 443.75 368.75" stroke="url(#paint0_linear_349_447)" stroke-width="28.125" stroke-linecap="round" stroke-linejoin="round"></path> <defs> <linearGradient id="paint0_linear_349_447" x1="350" y1="181.25" x2="350" y2="518.274" gradientUnits="userSpaceOnUse"> <stop stop-color="#3AD4DB"></stop> <stop offset="1" stop-color="#1AB5F8"></stop> <stop offset="1" stop-color="#1AB5F8"></stop> </linearGradient> </defs> </svg> 